HIERARCHY
ROOT Hips
{
	OFFSET 0.000000 0.000000 0.000000
	CHANNELS 6 Xposition Yposition Zposition Xrotation Yrotation Zrotation
	JOINT Chest
	{
		OFFSET 0.000000 0.009282 11.569106
		CHANNELS 3 Xrotation Yrotation Zrotation
		JOINT Chest2
		{
			OFFSET 0.000000 -0.016863 9.269641
			CHANNELS 3 Xrotation Yrotation Zrotation
			JOINT Chest3
			{
				OFFSET 0.000000 0.000000 8.374491
				CHANNELS 3 Xrotation Yrotation Zrotation
				JOINT Chest4
				{
					OFFSET 0.000000 0.000000 8.374493
					CHANNELS 3 Xrotation Yrotation Zrotation
					JOINT Neck
					{
						OFFSET 0.000000 -0.000001 12.152554
						CHANNELS 3 Xrotation Yrotation Zrotation
						JOINT Head
						{
							OFFSET 0.000000 -0.040100 7.802319
							CHANNELS 3 Xrotation Yrotation Zrotation
							End Site
							{
								OFFSET 0.000000 -0.020946 14.853096
							}
						}
					}
					JOINT RightCollar
					{
						OFFSET -2.894404 0.000000 6.791374
						CHANNELS 3 Xrotation Yrotation Zrotation
						JOINT RightShoulder
						{
							OFFSET -13.574684 0.000000 0.000000
							CHANNELS 3 Xrotation Yrotation Zrotation
							JOINT RightElbow
							{
								OFFSET -23.923903 0.000000 0.000000
								CHANNELS 3 Xrotation Yrotation Zrotation
								JOINT RightWrist
								{
									OFFSET -19.846718 -0.012765 0.000000
									CHANNELS 3 Xrotation Yrotation Zrotation
									End Site
									{
										OFFSET -14.973145 0.000000 0.000000
									}
								}
							}
						}
					}
					JOINT LeftCollar
					{
						OFFSET 2.894404 0.000000 6.791374
						CHANNELS 3 Xrotation Yrotation Zrotation
						JOINT LeftShoulder
						{
							OFFSET 13.574684 0.000000 0.000000
							CHANNELS 3 Xrotation Yrotation Zrotation
							JOINT LeftElbow
							{
								OFFSET 23.923903 0.000000 0.000000
								CHANNELS 3 Xrotation Yrotation Zrotation
								JOINT LeftWrist
								{
									OFFSET 19.846718 -0.012765 0.000000
									CHANNELS 3 Xrotation Yrotation Zrotation
									End Site
									{
										OFFSET 14.973145 0.000000 0.000000
									}
								}
							}
						}
					}
				}
			}
		}
	}
	JOINT RightHip
	{
		OFFSET -9.469263 -0.004642 0.045487
		CHANNELS 3 Xrotation Yrotation Zrotation
		JOINT RightKnee
		{
			OFFSET 0.000000 -0.002666 -40.478676
			CHANNELS 3 Xrotation Yrotation Zrotation
			JOINT RightAnkle
			{
				OFFSET 0.000000 -0.049110 -35.224068
				CHANNELS 3 Xrotation Yrotation Zrotation
				JOINT RightToe
				{
					OFFSET 0.000000 -12.539530 -6.151390
					CHANNELS 3 Xrotation Yrotation Zrotation
					End Site
					{
						OFFSET 0.000000 -5.044995 -1.291870
					}
				}
			}
		}
	}
	JOINT LeftHip
	{
		OFFSET 9.469263 -0.004642 0.045487
		CHANNELS 3 Xrotation Yrotation Zrotation
		JOINT LeftKnee
		{
			OFFSET 0.000000 -0.002666 -40.478676
			CHANNELS 3 Xrotation Yrotation Zrotation
			JOINT LeftAnkle
			{
				OFFSET 0.000000 -0.049110 -35.224068
				CHANNELS 3 Xrotation Yrotation Zrotation
				JOINT LeftToe
				{
					OFFSET 0.000000 -12.539530 -6.151390
					CHANNELS 3 Xrotation Yrotation Zrotation
					End Site
					{
						OFFSET 0.000000 -5.044995 -1.291870
					}
				}
			}
		}
	}
}
MOTION
Frames: 8
Frame Time: 0.016667
-1.672619 -13.185695 83.074684 -0.488073 1.626246 -103.919177 5.114394 1.219124 0.134856 2.269857 0.450639 0.111963 2.269856 0.450639 0.111964 1.702467 0.337569 0.085645 14.770877 -1.677507 -1.769063 -8.784757 -2.379540 -3.851866 -8.922451 -9.857234 -0.995190 20.020374 -40.058274 -5.151189 69.366349 17.764832 68.106644 -60.275190 44.780192 86.480249 -4.957498 8.791974 -4.685620 18.699002 39.948916 9.623974 62.208864 -9.113436 -63.180643 -30.794891 -32.904624 -85.662709 4.523424 -2.249524 -20.055392 1.592072 -3.242666 -8.367421 -7.594332 -4.963073 3.834566 -0.175742 -0.294360 -0.094882 -3.382995 2.460912 12.093303 -0.029949 1.824293 10.438264 6.956616 -2.934885 4.809617 0.457778 0.038775 0.048652 
-1.992576 -13.370101 83.096382 -0.396210 1.697009 -103.872001 5.137209 1.182912 0.147371 2.271844 0.431642 0.115005 2.271845 0.431642 0.115008 1.703962 0.323309 0.087862 14.775987 -1.710341 -1.798141 -8.776481 -2.428351 -3.917111 -8.933548 -9.843336 -0.990905 20.044647 -39.999087 -5.093124 69.354888 17.757010 68.149947 -60.296623 44.775145 86.487933 -5.027081 8.796708 -4.658729 18.784316 39.993869 9.577957 62.202430 -9.065652 -63.142189 -30.787754 -32.913193 -85.643073 4.742243 -2.118051 -20.013105 1.742746 -3.209934 -8.372515 -7.724691 -5.114531 3.820346 -0.203496 -0.329498 -0.131763 -3.135483 2.617573 12.058508 0.030578 1.799475 10.163648 6.489568 -3.104227 5.232431 0.537642 0.082146 0.054423 
-2.338497 -13.565453 83.115784 -0.308190 1.784867 -103.878264 5.153138 1.150006 0.183001 2.276138 0.419742 0.127215 2.276136 0.419742 0.127217 1.707181 0.314339 0.096975 14.791994 -1.747935 -1.828017 -8.748193 -2.485832 -3.985405 -8.947849 -9.831673 -0.990059 20.100289 -39.937124 -5.000247 69.362074 17.726042 68.195969 -60.346115 44.777494 86.518498 -5.097381 8.816800 -4.634064 18.754661 40.039832 9.636132 62.194781 -9.070745 -63.103974 -30.751704 -32.897159 -85.613669 4.989724 -1.963022 -19.946854 1.887353 -3.179051 -8.354847 -7.851148 -5.274193 3.769218 -0.230066 -0.356652 -0.165741 -2.805844 2.792589 11.963469 0.061455 1.812097 10.019032 5.992612 -3.301899 5.574068 0.579578 0.110734 0.063179 
-2.717469 -13.772230 83.130493 -0.228208 1.875331 -103.926963 5.156064 1.116736 0.240122 2.277986 0.415763 0.145397 2.277985 0.415763 0.145398 1.708579 0.311286 0.110601 14.821234 -1.790430 -1.860502 -8.695560 -2.551651 -4.060058 -8.936611 -9.822013 -0.996297 20.167600 -39.887840 -4.881798 69.363399 17.684697 68.241240 -60.418050 44.786841 86.559438 -5.160701 8.845939 -4.610966 18.645628 40.087774 9.762176 62.183504 -9.107864 -63.063109 -30.691110 -32.843627 -85.569061 5.279443 -1.810281 -19.954778 1.965781 -3.115914 -8.270166 -7.932903 -5.450780 3.745782 -0.257633 -0.386569 -0.181709 -2.453204 2.944876 11.841856 0.083392 1.871723 9.975940 5.520523 -3.498583 5.906432 0.572713 0.120688 0.069381 
-3.114580 -13.983104 83.150902 -0.176614 1.940497 -103.985313 5.129770 1.092280 0.297394 2.269094 0.417046 0.163359 2.269095 0.417046 0.163358 1.701927 0.312184 0.124070 14.868357 -1.833963 -1.895070 -8.609774 -2.619146 -4.138485 -8.916805 -9.814338 -0.997660 20.241573 -39.867275 -4.792302 69.340142 17.633096 68.275281 -60.470882 44.800833 86.580987 -5.218682 8.873476 -4.570991 18.537454 40.139874 9.876872 62.169044 -9.146465 -63.016848 -30.619581 -32.769991 -85.523339 5.567242 -1.659540 -20.024033 1.992166 -3.016836 -8.145886 -7.983532 -5.635952 3.747825 -0.283986 -0.420664 -0.175324 -2.132409 3.112989 11.662793 0.125767 1.947834 9.963071 5.059480 -3.680691 6.214195 0.536443 0.112711 0.073529 
-3.522213 -14.203099 83.167625 -0.141802 1.989838 -104.038070 5.087959 1.076220 0.341515 2.252775 0.419854 0.178739 2.252775 0.419854 0.178741 1.689696 0.314237 0.135604 14.928970 -1.875949 -1.929436 -8.498898 -2.684373 -4.215641 -8.939992 -9.802597 -1.002260 20.304349 -39.882322 -4.783478 69.319733 17.575670 68.300102 -60.468491 44.807527 86.555408 -5.280336 8.887358 -4.526952 18.465582 40.192484 9.965179 62.154592 -9.169052 -62.971489 -30.554257 -32.704066 -85.491381 5.860480 -1.497744 -20.127248 1.971922 -2.920413 -7.987726 -8.018558 -5.814137 3.708873 -0.300499 -0.453981 -0.164823 -1.841800 3.292067 11.452058 0.198665 2.016589 9.942866 4.603556 -3.820932 6.539333 0.484940 0.082546 0.074078 
-3.926072 -14.421072 83.177734 -0.077000 1.988344 -104.078361 5.011650 1.019207 0.359911 2.228507 0.418445 0.190432 2.228510 0.418445 0.190433 1.671510 0.313144 0.144349 14.998365 -1.908009 -1.962087 -8.371344 -2.732551 -4.285675 -8.983131 -9.786052 -1.001130 20.301754 -39.922463 -4.860508 69.334015 17.510595 68.314097 -60.407484 44.809907 86.488677 -5.385234 8.919273 -4.483311 18.462901 40.210915 10.065435 62.152700 -9.173637 -62.947344 -30.508467 -32.653686 -85.453289 6.124778 -1.382908 -20.228246 1.923154 -2.818516 -7.811148 -8.003282 -5.992276 3.706001 -0.349919 -0.477214 -0.179653 -1.594547 3.387136 11.272121 0.290101 2.104452 9.912076 4.159686 -3.868367 6.679090 0.420725 -0.009791 0.174905 
-4.338029 -14.653300 83.181343 -0.040130 2.001789 -104.149299 4.947936 0.994046 0.385912 2.202472 0.411628 0.199449 2.202475 0.411628 0.199445 1.651983 0.308007 0.151070 15.062577 -1.923192 -1.993351 -8.252677 -2.750475 -4.346894 -9.038296 -9.767785 -1.000860 20.255008 -39.955319 -4.985056 69.376697 17.453954 68.340687 -60.327366 44.812980 86.414324 -5.497516 8.951492 -4.425987 18.499226 40.213927 10.157132 62.167945 -9.164820 -62.930651 -30.458757 -32.620683 -85.394720 6.393573 -1.225126 -20.216433 1.873730 -2.722585 -7.669952 -8.034715 -6.146766 3.606411 -0.354945 -0.514553 -0.172886 -1.337053 3.564836 11.260686 0.369177 2.167277 9.821039 3.697382 -3.976270 6.875874 0.381873 -0.064426 0.180926 
